<svg width="350" height="100" viewBox="0 0 350 100" fill="none" xmlns="http://www.w3.org/2000/svg">
<rect width="350" height="100" rx="10" fill="#F4F7FC"/>
<mask id="mask0_307_2" style="mask-type:alpha" maskUnits="userSpaceOnUse" x="0" y="0" width="350" height="100">
<rect width="350" height="100" rx="10" fill="#1E3B68"/>
</mask>
<g mask="url(#mask0_307_2)">
<g filter="url(#filter0_d_307_2)">
<path d="M26.1172 25.8418H28.1445L30.6289 31.7539L31.2031 33.1836L31.6543 31.7539L32.5684 29.5977L30.9219 25.8418H32.832L33.5059 27.6289L34.1328 25.8418H36.043L34.3965 29.5977L35.3281 31.8008L35.8906 33.1836L36.3242 31.7773L38.8203 25.8418H40.8477L36.8047 35H34.9648L34.1504 33.1836L33.4883 31.4199L32.8262 33.1836L32 35H30.1602L26.1172 25.8418ZM41.7207 31.5195C41.7207 31.0508 41.8164 30.6035 42.0078 30.1777C42.1992 29.748 42.4746 29.3691 42.834 29.041C43.1934 28.7129 43.6328 28.4512 44.1523 28.2559C44.6758 28.0605 45.2695 27.9629 45.9336 27.9629C46.5938 27.9629 47.1875 28.0625 47.7148 28.2617C48.2461 28.457 48.6953 28.7266 49.0625 29.0703C49.4336 29.4141 49.7168 29.8184 49.9121 30.2832C50.1113 30.748 50.2109 31.2461 50.2109 31.7773C50.2109 31.8438 50.209 31.916 50.2051 31.9941C50.2051 32.0684 50.2012 32.1367 50.1934 32.1992H43.6543C43.7285 32.4062 43.8477 32.5957 44.0117 32.7676C44.1797 32.9395 44.3887 33.0879 44.6387 33.2129C44.8887 33.3379 45.1777 33.4355 45.5059 33.5059C45.834 33.5723 46.1973 33.6055 46.5957 33.6055C46.9941 33.6055 47.3906 33.5645 47.7852 33.4824C48.1797 33.3965 48.5566 33.2891 48.916 33.1602L49.502 34.4844C49.2754 34.5898 49.0449 34.6836 48.8105 34.7656C48.5801 34.8438 48.3379 34.9102 48.084 34.9648C47.834 35.0156 47.5703 35.0547 47.293 35.082C47.0195 35.1094 46.7305 35.123 46.4258 35.123C45.6484 35.123 44.9668 35.0293 44.3809 34.8418C43.7949 34.6543 43.3047 34.3984 42.9102 34.0742C42.5156 33.75 42.2188 33.3691 42.0195 32.9316C41.8203 32.4941 41.7207 32.0234 41.7207 31.5195ZM48.3711 30.8457C48.3086 30.6543 48.2109 30.4766 48.0781 30.3125C47.9492 30.1445 47.7871 30 47.5918 29.8789C47.3965 29.7539 47.1699 29.6562 46.9121 29.5859C46.6543 29.5156 46.3711 29.4805 46.0625 29.4805C45.7344 29.4805 45.4355 29.5176 45.166 29.5918C44.8965 29.666 44.6602 29.7656 44.457 29.8906C44.2539 30.0156 44.084 30.1602 43.9473 30.3242C43.8145 30.4883 43.7168 30.6621 43.6543 30.8457H48.3711ZM52.127 25.2793H53.8613V35H52.127V25.2793ZM56.0879 28.0859H57.8223V28.6719C58.2832 28.4102 58.7227 28.2266 59.1406 28.1211C59.5625 28.0156 59.9746 27.9629 60.377 27.9629C60.9043 27.9629 61.3926 28.041 61.8418 28.1973C62.291 28.3496 62.6797 28.5781 63.0078 28.8828C63.3359 29.1875 63.5918 29.5684 63.7754 30.0254C63.9629 30.4785 64.0566 31.0039 64.0566 31.6016V35H62.3281V31.8828C62.3281 31.5039 62.2734 31.166 62.1641 30.8691C62.0586 30.5684 61.9043 30.3164 61.7012 30.1133C61.502 29.9062 61.2578 29.75 60.9688 29.6445C60.6836 29.5352 60.3633 29.4805 60.0078 29.4805C59.8203 29.4805 59.627 29.5 59.4277 29.5391C59.2324 29.5781 59.0391 29.6348 58.8477 29.709C58.6602 29.7793 58.4785 29.8691 58.3027 29.9785C58.127 30.084 57.9668 30.2051 57.8223 30.3418V35H56.0879V28.0859ZM65.8613 32.8203C65.8613 32.4883 65.9336 32.1855 66.0781 31.9121C66.2227 31.6387 66.4395 31.4043 66.7285 31.209C67.0176 31.0098 67.377 30.8574 67.8066 30.752C68.2402 30.6426 68.7441 30.5879 69.3184 30.5879C69.7441 30.5879 70.1914 30.6191 70.6602 30.6816C71.1328 30.7441 71.6191 30.8398 72.1191 30.9688C72.0996 30.75 72.0332 30.5488 71.9199 30.3652C71.8066 30.1777 71.6484 30.0176 71.4453 29.8848C71.2461 29.748 71.0039 29.6426 70.7188 29.5684C70.4375 29.4941 70.1172 29.457 69.7578 29.457C69.5625 29.457 69.3477 29.4688 69.1133 29.4922C68.8789 29.5156 68.6367 29.5508 68.3867 29.5977C68.1367 29.6445 67.8887 29.7031 67.6426 29.7734C67.4004 29.8438 67.1738 29.9277 66.9629 30.0254L66.4355 28.6016C66.6973 28.5078 66.9766 28.4219 67.2734 28.3438C67.5742 28.2656 67.8809 28.1992 68.1934 28.1445C68.5059 28.0859 68.8184 28.041 69.1309 28.0098C69.4434 27.9785 69.7461 27.9629 70.0391 27.9629C71.332 27.9629 72.293 28.293 72.9219 28.9531C73.5508 29.6133 73.8652 30.625 73.8652 31.9883V35H72.1309V34.3496C71.9512 34.4551 71.7539 34.5547 71.5391 34.6484C71.3281 34.7422 71.0977 34.8242 70.8477 34.8945C70.5977 34.9648 70.3281 35.0195 70.0391 35.0586C69.7539 35.1016 69.4512 35.123 69.1309 35.123C68.5918 35.123 68.1172 35.0645 67.707 34.9473C67.3008 34.8301 66.9609 34.668 66.6875 34.4609C66.4141 34.2539 66.207 34.0117 66.0664 33.7344C65.9297 33.4531 65.8613 33.1484 65.8613 32.8203ZM67.6895 32.7617C67.6895 32.875 67.7188 32.9844 67.7773 33.0898C67.8359 33.1914 67.9297 33.2832 68.0586 33.3652C68.1875 33.4434 68.3516 33.5078 68.5508 33.5586C68.7539 33.6055 68.998 33.6289 69.2832 33.6289C69.5879 33.6289 69.8828 33.6016 70.168 33.5469C70.4531 33.4922 70.7188 33.4199 70.9648 33.3301C71.2109 33.2402 71.4336 33.1367 71.6328 33.0195C71.832 32.9023 71.998 32.7812 72.1309 32.6562V32.3516C71.8652 32.2773 71.6016 32.2148 71.3398 32.1641C71.082 32.1133 70.834 32.0742 70.5957 32.0469C70.3613 32.0156 70.1387 31.9941 69.9277 31.9824C69.7207 31.9707 69.5391 31.9648 69.3828 31.9648C69.0586 31.9648 68.7891 31.9863 68.5742 32.0293C68.3594 32.0723 68.1855 32.1309 68.0527 32.2051C67.9199 32.2754 67.8262 32.3594 67.7715 32.457C67.7168 32.5547 67.6895 32.6562 67.6895 32.7617ZM76.1621 28.0859H77.8965V28.6719C78.3574 28.4102 78.7969 28.2266 79.2148 28.1211C79.6367 28.0156 80.0488 27.9629 80.4512 27.9629C80.9785 27.9629 81.4668 28.041 81.916 28.1973C82.3652 28.3496 82.7539 28.5781 83.082 28.8828C83.4102 29.1875 83.666 29.5684 83.8496 30.0254C84.0371 30.4785 84.1309 31.0039 84.1309 31.6016V35H82.4023V31.8828C82.4023 31.5039 82.3477 31.166 82.2383 30.8691C82.1328 30.5684 81.9785 30.3164 81.7754 30.1133C81.5762 29.9062 81.332 29.75 81.043 29.6445C80.7578 29.5352 80.4375 29.4805 80.082 29.4805C79.8945 29.4805 79.7012 29.5 79.502 29.5391C79.3066 29.5781 79.1133 29.6348 78.9219 29.709C78.7344 29.7793 78.5527 29.8691 78.377 29.9785C78.2012 30.084 78.041 30.2051 77.8965 30.3418V35H76.1621V28.0859ZM85.8477 31.5605C85.8477 31.0527 85.9395 30.5801 86.123 30.1426C86.3105 29.7012 86.582 29.3203 86.9375 29C87.2969 28.6758 87.7344 28.4219 88.25 28.2383C88.7695 28.0547 89.3613 27.9629 90.0254 27.9629C90.3145 27.9629 90.6055 27.9805 90.8984 28.0156C91.1914 28.0508 91.4727 28.1016 91.7422 28.168C92.0156 28.2305 92.2715 28.3066 92.5098 28.3965C92.748 28.4824 92.9551 28.5781 93.1309 28.6836L92.3281 29.9902C91.9492 29.8145 91.5898 29.6855 91.25 29.6035C90.9141 29.5215 90.5723 29.4805 90.2246 29.4805C89.8262 29.4805 89.4688 29.5332 89.1523 29.6387C88.8359 29.7402 88.5664 29.8848 88.3438 30.0723C88.125 30.2559 87.957 30.4746 87.8398 30.7285C87.7266 30.9785 87.6699 31.252 87.6699 31.5488C87.6699 31.8457 87.7305 32.1211 87.8516 32.375C87.9766 32.625 88.1504 32.8418 88.373 33.0254C88.5996 33.2051 88.8711 33.3477 89.1875 33.4531C89.5078 33.5547 89.8633 33.6055 90.2539 33.6055C90.6836 33.6055 91.0879 33.5449 91.4668 33.4238C91.8496 33.3027 92.2051 33.1406 92.5332 32.9375L93.3359 34.2441C93.1289 34.3691 92.9043 34.4863 92.6621 34.5957C92.4199 34.7012 92.1602 34.793 91.8828 34.8711C91.6094 34.9492 91.3203 35.0098 91.0156 35.0527C90.7148 35.0996 90.4023 35.123 90.0781 35.123C89.418 35.123 88.8262 35.0332 88.3027 34.8535C87.7793 34.6738 87.3359 34.4258 86.9727 34.1094C86.6094 33.7891 86.3301 33.4121 86.1348 32.9785C85.9434 32.5449 85.8477 32.0723 85.8477 31.5605ZM94.877 31.5195C94.877 31.0508 94.9727 30.6035 95.1641 30.1777C95.3555 29.748 95.6309 29.3691 95.9902 29.041C96.3496 28.7129 96.7891 28.4512 97.3086 28.2559C97.832 28.0605 98.4258 27.9629 99.0898 27.9629C99.75 27.9629 100.344 28.0625 100.871 28.2617C101.402 28.457 101.852 28.7266 102.219 29.0703C102.59 29.4141 102.873 29.8184 103.068 30.2832C103.268 30.748 103.367 31.2461 103.367 31.7773C103.367 31.8438 103.365 31.916 103.361 31.9941C103.361 32.0684 103.357 32.1367 103.35 32.1992H96.8105C96.8848 32.4062 97.0039 32.5957 97.168 32.7676C97.3359 32.9395 97.5449 33.0879 97.7949 33.2129C98.0449 33.3379 98.334 33.4355 98.6621 33.5059C98.9902 33.5723 99.3535 33.6055 99.752 33.6055C100.15 33.6055 100.547 33.5645 100.941 33.4824C101.336 33.3965 101.713 33.2891 102.072 33.1602L102.658 34.4844C102.432 34.5898 102.201 34.6836 101.967 34.7656C101.736 34.8438 101.494 34.9102 101.24 34.9648C100.99 35.0156 100.727 35.0547 100.449 35.082C100.176 35.1094 99.8867 35.123 99.582 35.123C98.8047 35.123 98.123 35.0293 97.5371 34.8418C96.9512 34.6543 96.4609 34.3984 96.0664 34.0742C95.6719 33.75 95.375 33.3691 95.1758 32.9316C94.9766 32.4941 94.877 32.0234 94.877 31.5195ZM101.527 30.8457C101.465 30.6543 101.367 30.4766 101.234 30.3125C101.105 30.1445 100.943 30 100.748 29.8789C100.553 29.7539 100.326 29.6562 100.068 29.5859C99.8105 29.5156 99.5273 29.4805 99.2188 29.4805C98.8906 29.4805 98.5918 29.5176 98.3223 29.5918C98.0527 29.666 97.8164 29.7656 97.6133 29.8906C97.4102 30.0156 97.2402 30.1602 97.1035 30.3242C96.9707 30.4883 96.873 30.6621 96.8105 30.8457H101.527ZM106.643 25.2793C106.85 25.2793 107.039 25.3125 107.211 25.3789C107.387 25.4453 107.537 25.543 107.662 25.6719C107.787 25.7969 107.885 25.9492 107.955 26.1289C108.025 26.3086 108.061 26.5117 108.061 26.7383C108.061 27.25 107.885 27.7402 107.533 28.209C107.186 28.6738 106.678 29.0879 106.01 29.4512L105.365 28.5312C105.541 28.4375 105.695 28.3457 105.828 28.2559C105.965 28.166 106.082 28.0742 106.18 27.9805C106.281 27.8867 106.367 27.791 106.438 27.6934C106.512 27.5918 106.578 27.4844 106.637 27.3711C106.445 27.3711 106.271 27.3438 106.115 27.2891C105.963 27.2344 105.83 27.1602 105.717 27.0664C105.607 26.9688 105.521 26.8574 105.459 26.7324C105.4 26.6035 105.371 26.4668 105.371 26.3223C105.371 26.1777 105.4 26.043 105.459 25.918C105.521 25.7891 105.607 25.6777 105.717 25.584C105.83 25.4902 105.965 25.416 106.121 25.3613C106.277 25.3066 106.451 25.2793 106.643 25.2793ZM110.539 32.8789C111.008 33.1602 111.523 33.3672 112.086 33.5C112.648 33.6328 113.225 33.6992 113.814 33.6992C114.213 33.6992 114.545 33.6719 114.811 33.6172C115.076 33.5625 115.289 33.4922 115.449 33.4062C115.609 33.3203 115.723 33.2227 115.789 33.1133C115.855 33.0039 115.889 32.8926 115.889 32.7793C115.889 32.6152 115.816 32.4746 115.672 32.3574C115.531 32.2402 115.297 32.1816 114.969 32.1816C114.816 32.1816 114.652 32.1914 114.477 32.2109C114.301 32.2305 114.115 32.252 113.92 32.2754C113.729 32.2949 113.527 32.3145 113.316 32.334C113.109 32.3535 112.898 32.3633 112.684 32.3633C112.215 32.3633 111.814 32.3125 111.482 32.2109C111.154 32.1094 110.887 31.9707 110.68 31.7949C110.473 31.6191 110.322 31.4121 110.229 31.1738C110.135 30.9316 110.088 30.6719 110.088 30.3945C110.088 30.043 110.17 29.7188 110.334 29.4219C110.498 29.125 110.732 28.8691 111.037 28.6543C111.342 28.4355 111.709 28.2656 112.139 28.1445C112.572 28.0234 113.055 27.9629 113.586 27.9629C113.863 27.9629 114.152 27.9805 114.453 28.0156C114.758 28.0469 115.057 28.0898 115.35 28.1445C115.643 28.1992 115.924 28.2637 116.193 28.3379C116.463 28.4082 116.701 28.4844 116.908 28.5664L116.363 29.9141C115.922 29.75 115.48 29.6211 115.039 29.5273C114.602 29.4297 114.15 29.3809 113.686 29.3809C113.361 29.3809 113.086 29.4062 112.859 29.457C112.637 29.5039 112.455 29.5684 112.314 29.6504C112.174 29.7285 112.07 29.8203 112.004 29.9258C111.941 30.0273 111.91 30.1348 111.91 30.248C111.91 30.3301 111.926 30.4043 111.957 30.4707C111.992 30.5371 112.047 30.5957 112.121 30.6465C112.199 30.6934 112.299 30.7305 112.42 30.7578C112.545 30.7812 112.697 30.793 112.877 30.793C113.041 30.793 113.215 30.7832 113.398 30.7637C113.582 30.7441 113.773 30.7246 113.973 30.7051C114.172 30.6816 114.377 30.6602 114.588 30.6406C114.803 30.6211 115.021 30.6113 115.244 30.6113C115.658 30.6113 116.02 30.6602 116.328 30.7578C116.641 30.8555 116.898 30.9922 117.102 31.168C117.305 31.3438 117.457 31.5508 117.559 31.7891C117.66 32.0273 117.711 32.2871 117.711 32.5684C117.711 32.9316 117.627 33.2695 117.459 33.582C117.291 33.8945 117.041 34.166 116.709 34.3965C116.377 34.623 115.963 34.8008 115.467 34.9297C114.975 35.0586 114.404 35.123 113.756 35.123C113.357 35.123 112.973 35.0977 112.602 35.0469C112.23 35 111.877 34.9355 111.541 34.8535C111.205 34.7676 110.889 34.668 110.592 34.5547C110.299 34.4414 110.031 34.3203 109.789 34.1914L110.539 32.8789ZM123.477 25.8418H125.334V33.3711H130.66V35H123.477V25.8418ZM131.92 31.5195C131.92 31.0508 132.016 30.6035 132.207 30.1777C132.398 29.748 132.674 29.3691 133.033 29.041C133.393 28.7129 133.832 28.4512 134.352 28.2559C134.875 28.0605 135.469 27.9629 136.133 27.9629C136.793 27.9629 137.387 28.0625 137.914 28.2617C138.445 28.457 138.895 28.7266 139.262 29.0703C139.633 29.4141 139.916 29.8184 140.111 30.2832C140.311 30.748 140.41 31.2461 140.41 31.7773C140.41 31.8438 140.408 31.916 140.404 31.9941C140.404 32.0684 140.4 32.1367 140.393 32.1992H133.854C133.928 32.4062 134.047 32.5957 134.211 32.7676C134.379 32.9395 134.588 33.0879 134.838 33.2129C135.088 33.3379 135.377 33.4355 135.705 33.5059C136.033 33.5723 136.396 33.6055 136.795 33.6055C137.193 33.6055 137.59 33.5645 137.984 33.4824C138.379 33.3965 138.756 33.2891 139.115 33.1602L139.701 34.4844C139.475 34.5898 139.244 34.6836 139.01 34.7656C138.779 34.8438 138.537 34.9102 138.283 34.9648C138.033 35.0156 137.77 35.0547 137.492 35.082C137.219 35.1094 136.93 35.123 136.625 35.123C135.848 35.123 135.166 35.0293 134.58 34.8418C133.994 34.6543 133.504 34.3984 133.109 34.0742C132.715 33.75 132.418 33.3691 132.219 32.9316C132.02 32.4941 131.92 32.0234 131.92 31.5195ZM138.57 30.8457C138.508 30.6543 138.41 30.4766 138.277 30.3125C138.148 30.1445 137.986 30 137.791 29.8789C137.596 29.7539 137.369 29.6562 137.111 29.5859C136.854 29.5156 136.57 29.4805 136.262 29.4805C135.934 29.4805 135.635 29.5176 135.365 29.5918C135.096 29.666 134.859 29.7656 134.656 29.8906C134.453 30.0156 134.283 30.1602 134.146 30.3242C134.014 30.4883 133.916 30.6621 133.854 30.8457H138.57ZM142.279 28.0859H144.014V28.6719C144.475 28.4102 144.914 28.2266 145.332 28.1211C145.754 28.0156 146.166 27.9629 146.568 27.9629C147.096 27.9629 147.584 28.041 148.033 28.1973C148.482 28.3496 148.871 28.5781 149.199 28.8828C149.527 29.1875 149.783 29.5684 149.967 30.0254C150.154 30.4785 150.248 31.0039 150.248 31.6016V35H148.52V31.8828C148.52 31.5039 148.465 31.166 148.355 30.8691C148.25 30.5684 148.096 30.3164 147.893 30.1133C147.693 29.9062 147.449 29.75 147.16 29.6445C146.875 29.5352 146.555 29.4805 146.199 29.4805C146.012 29.4805 145.818 29.5 145.619 29.5391C145.424 29.5781 145.23 29.6348 145.039 29.709C144.852 29.7793 144.67 29.8691 144.494 29.9785C144.318 30.084 144.158 30.2051 144.014 30.3418V35H142.279V28.0859ZM151.848 31.5723C151.848 31.0215 151.951 30.5254 152.158 30.084C152.365 29.6387 152.65 29.2598 153.014 28.9473C153.381 28.6309 153.814 28.3887 154.314 28.2207C154.818 28.0488 155.363 27.9629 155.949 27.9629C156.199 27.9629 156.445 27.9785 156.688 28.0098C156.934 28.041 157.168 28.084 157.391 28.1387C157.617 28.1934 157.828 28.2598 158.023 28.3379C158.223 28.4121 158.398 28.4941 158.551 28.584V25.2793H160.285V35H158.551V34.3496C158.398 34.4551 158.219 34.5547 158.012 34.6484C157.805 34.7422 157.582 34.8242 157.344 34.8945C157.105 34.9648 156.857 35.0195 156.6 35.0586C156.346 35.1016 156.094 35.123 155.844 35.123C155.258 35.123 154.719 35.0371 154.227 34.8652C153.738 34.6934 153.318 34.4512 152.967 34.1387C152.615 33.8262 152.34 33.4531 152.141 33.0195C151.945 32.582 151.848 32.0996 151.848 31.5723ZM153.67 31.5723C153.67 31.8496 153.725 32.1113 153.834 32.3574C153.947 32.6035 154.107 32.8203 154.314 33.0078C154.525 33.1914 154.777 33.3379 155.07 33.4473C155.367 33.5527 155.699 33.6055 156.066 33.6055C156.301 33.6055 156.535 33.584 156.77 33.541C157.004 33.4941 157.229 33.4297 157.443 33.3477C157.662 33.2656 157.865 33.166 158.053 33.0488C158.244 32.9316 158.41 32.8008 158.551 32.6562V30.2598C158.375 30.1191 158.189 30 157.994 29.9023C157.799 29.8047 157.6 29.7246 157.396 29.6621C157.193 29.5996 156.988 29.5547 156.781 29.5273C156.574 29.4961 156.373 29.4805 156.178 29.4805C155.779 29.4805 155.424 29.5352 155.111 29.6445C154.803 29.75 154.541 29.8965 154.326 30.084C154.115 30.2715 153.953 30.4922 153.84 30.7461C153.727 31 153.67 31.2754 153.67 31.5723ZM163.326 27.1426C163.154 27.1426 162.998 27.1191 162.857 27.0723C162.721 27.0215 162.604 26.9551 162.506 26.873C162.408 26.7871 162.332 26.6895 162.277 26.5801C162.227 26.4668 162.201 26.3477 162.201 26.2227C162.201 26.0938 162.227 25.9746 162.277 25.8652C162.332 25.752 162.408 25.6543 162.506 25.5723C162.604 25.4902 162.721 25.4258 162.857 25.3789C162.998 25.3281 163.154 25.3027 163.326 25.3027C163.502 25.3027 163.658 25.3281 163.795 25.3789C163.936 25.4258 164.055 25.4902 164.152 25.5723C164.25 25.6543 164.324 25.752 164.375 25.8652C164.43 25.9746 164.457 26.0938 164.457 26.2227C164.457 26.3477 164.43 26.4668 164.375 26.5801C164.324 26.6895 164.25 26.7871 164.152 26.873C164.055 26.9551 163.936 27.0215 163.795 27.0723C163.658 27.1191 163.502 27.1426 163.326 27.1426ZM162.459 28.0859H164.193V35H162.459V28.0859ZM166.42 28.0859H168.154V28.6719C168.615 28.4102 169.055 28.2266 169.473 28.1211C169.895 28.0156 170.307 27.9629 170.709 27.9629C171.236 27.9629 171.725 28.041 172.174 28.1973C172.623 28.3496 173.012 28.5781 173.34 28.8828C173.668 29.1875 173.924 29.5684 174.107 30.0254C174.295 30.4785 174.389 31.0039 174.389 31.6016V35H172.66V31.8828C172.66 31.5039 172.605 31.166 172.496 30.8691C172.391 30.5684 172.236 30.3164 172.033 30.1133C171.834 29.9062 171.59 29.75 171.301 29.6445C171.016 29.5352 170.695 29.4805 170.34 29.4805C170.152 29.4805 169.959 29.5 169.76 29.5391C169.564 29.5781 169.371 29.6348 169.18 29.709C168.992 29.7793 168.811 29.8691 168.635 29.9785C168.459 30.084 168.299 30.2051 168.154 30.3418V35H166.42V28.0859ZM177.605 36.1719C177.824 36.25 178.047 36.3145 178.273 36.3652C178.5 36.4199 178.719 36.4629 178.93 36.4941C179.145 36.5293 179.35 36.5527 179.545 36.5645C179.74 36.5801 179.914 36.5879 180.066 36.5879C180.527 36.5879 180.928 36.5312 181.268 36.418C181.611 36.3086 181.896 36.1602 182.123 35.9727C182.354 35.7852 182.525 35.5664 182.639 35.3164C182.752 35.0703 182.809 34.8086 182.809 34.5312V34.2324C182.66 34.334 182.486 34.4316 182.287 34.5254C182.088 34.6191 181.869 34.7012 181.631 34.7715C181.393 34.8418 181.139 34.8984 180.869 34.9414C180.604 34.9844 180.328 35.0059 180.043 35.0059C179.477 35.0059 178.953 34.9219 178.473 34.7539C177.992 34.582 177.576 34.3438 177.225 34.0391C176.873 33.7305 176.598 33.3613 176.398 32.9316C176.203 32.502 176.105 32.0254 176.105 31.502C176.105 30.9668 176.209 30.4824 176.416 30.0488C176.623 29.6113 176.908 29.2383 177.271 28.9297C177.639 28.6211 178.072 28.3828 178.572 28.2148C179.072 28.0469 179.615 27.9629 180.201 27.9629C180.451 27.9629 180.699 27.9785 180.945 28.0098C181.191 28.041 181.426 28.084 181.648 28.1387C181.875 28.1934 182.086 28.2598 182.281 28.3379C182.48 28.4121 182.656 28.4941 182.809 28.584V28.0859H184.543V34.209C184.543 34.8379 184.447 35.3945 184.256 35.8789C184.064 36.3633 183.783 36.7695 183.412 37.0977C183.045 37.4297 182.588 37.6797 182.041 37.8477C181.494 38.0195 180.867 38.1055 180.16 38.1055C179.906 38.1055 179.643 38.0938 179.369 38.0703C179.096 38.0508 178.82 38.0195 178.543 37.9766C178.27 37.9375 177.998 37.8887 177.729 37.8301C177.463 37.7754 177.207 37.7109 176.961 37.6367L177.605 36.1719ZM177.928 31.4844C177.928 31.7617 177.982 32.0234 178.092 32.2695C178.205 32.5117 178.365 32.7246 178.572 32.9082C178.779 33.0879 179.029 33.2305 179.322 33.3359C179.615 33.4375 179.945 33.4883 180.312 33.4883C180.551 33.4883 180.787 33.4668 181.021 33.4238C181.26 33.377 181.486 33.3125 181.701 33.2305C181.92 33.1484 182.123 33.0488 182.311 32.9316C182.502 32.8145 182.668 32.6836 182.809 32.5391V30.2598C182.633 30.1191 182.447 30 182.252 29.9023C182.057 29.8047 181.857 29.7246 181.654 29.6621C181.451 29.5996 181.246 29.5547 181.039 29.5273C180.832 29.4961 180.631 29.4805 180.436 29.4805C180.037 29.4805 179.682 29.5332 179.369 29.6387C179.061 29.7441 178.799 29.8887 178.584 30.0723C178.373 30.252 178.211 30.4629 178.098 30.7051C177.984 30.9473 177.928 31.207 177.928 31.4844Z" fill="url(#paint0_linear_307_2)"/>
</g>
<g filter="url(#filter1_d_307_2)">
<path d="M33.714 64.55H28.506L27.428 67H25.986L30.424 57.2H31.81L36.262 67H34.792L33.714 64.55ZM33.224 63.43L31.11 58.628L28.996 63.43H33.224ZM44.3072 59.58V67H43.0332V65.88C42.7625 66.2627 42.4032 66.5613 41.9552 66.776C41.5165 66.9813 41.0359 67.084 40.5132 67.084C39.5239 67.084 38.7445 66.8133 38.1752 66.272C37.6059 65.7213 37.3212 64.914 37.3212 63.85V59.58H38.6652V63.696C38.6652 64.4147 38.8379 64.9607 39.1832 65.334C39.5285 65.698 40.0232 65.88 40.6672 65.88C41.3765 65.88 41.9365 65.6653 42.3472 65.236C42.7579 64.8067 42.9632 64.2 42.9632 63.416V59.58H44.3072ZM53.8658 56.612V67H52.5778V65.824C52.2791 66.2347 51.9011 66.5473 51.4438 66.762C50.9865 66.9767 50.4825 67.084 49.9318 67.084C49.2131 67.084 48.5691 66.9253 47.9998 66.608C47.4305 66.2907 46.9825 65.8473 46.6558 65.278C46.3385 64.6993 46.1798 64.0367 46.1798 63.29C46.1798 62.5433 46.3385 61.8853 46.6558 61.316C46.9825 60.7467 47.4305 60.3033 47.9998 59.986C48.5691 59.6687 49.2131 59.51 49.9318 59.51C50.4638 59.51 50.9538 59.6127 51.4018 59.818C51.8498 60.014 52.2231 60.308 52.5218 60.7V56.612H53.8658ZM50.0438 65.908C50.5105 65.908 50.9351 65.8007 51.3178 65.586C51.7005 65.362 51.9991 65.054 52.2138 64.662C52.4285 64.2607 52.5358 63.8033 52.5358 63.29C52.5358 62.7767 52.4285 62.324 52.2138 61.932C51.9991 61.5307 51.7005 61.2227 51.3178 61.008C50.9351 60.7933 50.5105 60.686 50.0438 60.686C49.5678 60.686 49.1385 60.7933 48.7558 61.008C48.3825 61.2227 48.0838 61.5307 47.8598 61.932C47.6451 62.324 47.5378 62.7767 47.5378 63.29C47.5378 63.8033 47.6451 64.2607 47.8598 64.662C48.0838 65.054 48.3825 65.362 48.7558 65.586C49.1385 65.8007 49.5678 65.908 50.0438 65.908ZM56.4088 59.58H57.7528V67H56.4088V59.58ZM57.0808 58.152C56.8194 58.152 56.6001 58.068 56.4228 57.9C56.2548 57.732 56.1708 57.5267 56.1708 57.284C56.1708 57.0413 56.2548 56.836 56.4228 56.668C56.6001 56.4907 56.8194 56.402 57.0808 56.402C57.3421 56.402 57.5568 56.486 57.7248 56.654C57.9021 56.8127 57.9908 57.0133 57.9908 57.256C57.9908 57.508 57.9021 57.7227 57.7248 57.9C57.5568 58.068 57.3421 58.152 57.0808 58.152ZM64.4909 66.566C64.2949 66.734 64.0523 66.8647 63.7629 66.958C63.4736 67.042 63.1749 67.084 62.8669 67.084C62.1203 67.084 61.5416 66.8833 61.1309 66.482C60.7203 66.0807 60.5149 65.5067 60.5149 64.76V60.686H59.2549V59.58H60.5149V57.956H61.8589V59.58H63.9869V60.686H61.8589V64.704C61.8589 65.1053 61.9569 65.4133 62.1529 65.628C62.3583 65.8427 62.6476 65.95 63.0209 65.95C63.4316 65.95 63.7816 65.8333 64.0709 65.6L64.4909 66.566ZM72.5757 63.332C72.5757 63.4347 72.5664 63.57 72.5477 63.738H66.5277C66.6117 64.3913 66.8964 64.9187 67.3817 65.32C67.8764 65.712 68.4877 65.908 69.2157 65.908C70.1024 65.908 70.8164 65.6093 71.3577 65.012L72.0997 65.88C71.7637 66.272 71.3437 66.5707 70.8397 66.776C70.345 66.9813 69.7897 67.084 69.1737 67.084C68.3897 67.084 67.6944 66.9253 67.0877 66.608C66.481 66.2813 66.0097 65.8287 65.6737 65.25C65.347 64.6713 65.1837 64.018 65.1837 63.29C65.1837 62.5713 65.3424 61.9227 65.6597 61.344C65.9864 60.7653 66.4297 60.3173 66.9897 60C67.559 59.6733 68.1984 59.51 68.9077 59.51C69.617 59.51 70.247 59.6733 70.7977 60C71.3577 60.3173 71.7917 60.7653 72.0997 61.344C72.417 61.9227 72.5757 62.5853 72.5757 63.332ZM68.9077 60.644C68.2637 60.644 67.7224 60.84 67.2837 61.232C66.8544 61.624 66.6024 62.1373 66.5277 62.772H71.2877C71.213 62.1467 70.9564 61.638 70.5177 61.246C70.0884 60.8447 69.5517 60.644 68.9077 60.644ZM81.442 56.612V67H80.154V65.824C79.8553 66.2347 79.4773 66.5473 79.02 66.762C78.5626 66.9767 78.0586 67.084 77.508 67.084C76.7893 67.084 76.1453 66.9253 75.576 66.608C75.0066 66.2907 74.5586 65.8473 74.232 65.278C73.9146 64.6993 73.756 64.0367 73.756 63.29C73.756 62.5433 73.9146 61.8853 74.232 61.316C74.5586 60.7467 75.0066 60.3033 75.576 59.986C76.1453 59.6687 76.7893 59.51 77.508 59.51C78.04 59.51 78.53 59.6127 78.978 59.818C79.426 60.014 79.7993 60.308 80.098 60.7V56.612H81.442ZM77.62 65.908C78.0866 65.908 78.5113 65.8007 78.894 65.586C79.2766 65.362 79.5753 65.054 79.79 64.662C80.0046 64.2607 80.112 63.8033 80.112 63.29C80.112 62.7767 80.0046 62.324 79.79 61.932C79.5753 61.5307 79.2766 61.2227 78.894 61.008C78.5113 60.7933 78.0866 60.686 77.62 60.686C77.144 60.686 76.7146 60.7933 76.332 61.008C75.9586 61.2227 75.66 61.5307 75.436 61.932C75.2213 62.324 75.114 62.7767 75.114 63.29C75.114 63.8033 75.2213 64.2607 75.436 64.662C75.66 65.054 75.9586 65.362 76.332 65.586C76.7146 65.8007 77.144 65.908 77.62 65.908ZM91.6787 59.51C92.3974 59.51 93.0414 59.6687 93.6107 59.986C94.18 60.3033 94.6234 60.7467 94.9407 61.316C95.2674 61.8853 95.4307 62.5433 95.4307 63.29C95.4307 64.0367 95.2674 64.6993 94.9407 65.278C94.6234 65.8473 94.18 66.2907 93.6107 66.608C93.0414 66.9253 92.3974 67.084 91.6787 67.084C91.128 67.084 90.624 66.9767 90.1667 66.762C89.7094 66.5473 89.3314 66.2347 89.0327 65.824V67H87.7447V56.612H89.0887V60.7C89.3874 60.308 89.7607 60.014 90.2087 59.818C90.6567 59.6127 91.1467 59.51 91.6787 59.51ZM91.5667 65.908C92.0427 65.908 92.4674 65.8007 92.8407 65.586C93.2234 65.362 93.522 65.054 93.7367 64.662C93.9607 64.2607 94.0727 63.8033 94.0727 63.29C94.0727 62.7767 93.9607 62.324 93.7367 61.932C93.522 61.5307 93.2234 61.2227 92.8407 61.008C92.4674 60.7933 92.0427 60.686 91.5667 60.686C91.1 60.686 90.6754 60.7933 90.2927 61.008C89.91 61.2227 89.6114 61.5307 89.3967 61.932C89.182 62.324 89.0747 62.7767 89.0747 63.29C89.0747 63.8033 89.182 64.2607 89.3967 64.662C89.6114 65.054 89.91 65.362 90.2927 65.586C90.6754 65.8007 91.1 65.908 91.5667 65.908ZM103.649 59.58L100.051 67.742C99.7333 68.498 99.3599 69.03 98.9306 69.338C98.5106 69.646 98.0019 69.8 97.4046 69.8C97.0406 69.8 96.6859 69.7393 96.3406 69.618C96.0046 69.506 95.7246 69.338 95.5006 69.114L96.0746 68.106C96.4573 68.47 96.9006 68.652 97.4046 68.652C97.7313 68.652 98.0019 68.5633 98.2166 68.386C98.4406 68.218 98.6413 67.924 98.8186 67.504L99.0566 66.986L95.7806 59.58H97.1806L99.7706 65.516L102.333 59.58H103.649ZM108.859 57.2H110.259V67H108.859V57.2ZM116.959 59.51C117.901 59.51 118.648 59.7853 119.199 60.336C119.759 60.8773 120.039 61.6753 120.039 62.73V67H118.695V62.884C118.695 62.1653 118.522 61.624 118.177 61.26C117.831 60.896 117.337 60.714 116.693 60.714C115.965 60.714 115.391 60.9287 114.971 61.358C114.551 61.778 114.341 62.3847 114.341 63.178V67H112.997V59.58H114.285V60.7C114.555 60.3173 114.919 60.0233 115.377 59.818C115.843 59.6127 116.371 59.51 116.959 59.51ZM124.654 67.084C124.047 67.084 123.464 67.0047 122.904 66.846C122.344 66.678 121.905 66.468 121.588 66.216L122.148 65.152C122.475 65.3853 122.871 65.572 123.338 65.712C123.805 65.852 124.276 65.922 124.752 65.922C125.928 65.922 126.516 65.586 126.516 64.914C126.516 64.69 126.437 64.5127 126.278 64.382C126.119 64.2513 125.919 64.158 125.676 64.102C125.443 64.0367 125.107 63.9667 124.668 63.892C124.071 63.7987 123.581 63.6913 123.198 63.57C122.825 63.4487 122.503 63.2433 122.232 62.954C121.961 62.6647 121.826 62.2587 121.826 61.736C121.826 61.064 122.106 60.5273 122.666 60.126C123.226 59.7153 123.977 59.51 124.92 59.51C125.415 59.51 125.909 59.5707 126.404 59.692C126.899 59.8133 127.305 59.9767 127.622 60.182L127.048 61.246C126.441 60.854 125.727 60.658 124.906 60.658C124.337 60.658 123.903 60.7513 123.604 60.938C123.305 61.1247 123.156 61.372 123.156 61.68C123.156 61.9227 123.24 62.114 123.408 62.254C123.576 62.394 123.781 62.4967 124.024 62.562C124.276 62.6273 124.626 62.702 125.074 62.786C125.671 62.8887 126.152 63.0007 126.516 63.122C126.889 63.234 127.207 63.43 127.468 63.71C127.729 63.99 127.86 64.382 127.86 64.886C127.86 65.558 127.571 66.0947 126.992 66.496C126.423 66.888 125.643 67.084 124.654 67.084ZM133.474 59.51C134.192 59.51 134.836 59.6687 135.406 59.986C135.975 60.3033 136.418 60.7467 136.736 61.316C137.062 61.8853 137.226 62.5433 137.226 63.29C137.226 64.0367 137.062 64.6993 136.736 65.278C136.418 65.8473 135.975 66.2907 135.406 66.608C134.836 66.9253 134.192 67.084 133.474 67.084C132.942 67.084 132.452 66.9813 132.004 66.776C131.565 66.5707 131.192 66.272 130.884 65.88V69.716H129.54V59.58H130.828V60.756C131.126 60.3453 131.504 60.0373 131.962 59.832C132.419 59.6173 132.923 59.51 133.474 59.51ZM133.362 65.908C133.838 65.908 134.262 65.8007 134.636 65.586C135.018 65.362 135.317 65.054 135.532 64.662C135.756 64.2607 135.868 63.8033 135.868 63.29C135.868 62.7767 135.756 62.324 135.532 61.932C135.317 61.5307 135.018 61.2227 134.636 61.008C134.262 60.7933 133.838 60.686 133.362 60.686C132.895 60.686 132.47 60.798 132.088 61.022C131.714 61.2367 131.416 61.54 131.192 61.932C130.977 62.324 130.87 62.7767 130.87 63.29C130.87 63.8033 130.977 64.2607 131.192 64.662C131.406 65.054 131.705 65.362 132.088 65.586C132.47 65.8007 132.895 65.908 133.362 65.908ZM145.789 63.332C145.789 63.4347 145.779 63.57 145.761 63.738H139.741C139.825 64.3913 140.109 64.9187 140.595 65.32C141.089 65.712 141.701 65.908 142.429 65.908C143.315 65.908 144.029 65.6093 144.571 65.012L145.313 65.88C144.977 66.272 144.557 66.5707 144.053 66.776C143.558 66.9813 143.003 67.084 142.387 67.084C141.603 67.084 140.907 66.9253 140.301 66.608C139.694 66.2813 139.223 65.8287 138.887 65.25C138.56 64.6713 138.397 64.018 138.397 63.29C138.397 62.5713 138.555 61.9227 138.873 61.344C139.199 60.7653 139.643 60.3173 140.203 60C140.772 59.6733 141.411 59.51 142.121 59.51C142.83 59.51 143.46 59.6733 144.011 60C144.571 60.3173 145.005 60.7653 145.313 61.344C145.63 61.9227 145.789 62.5853 145.789 63.332ZM142.121 60.644C141.477 60.644 140.935 60.84 140.497 61.232C140.067 61.624 139.815 62.1373 139.741 62.772H144.501C144.426 62.1467 144.169 61.638 143.731 61.246C143.301 60.8447 142.765 60.644 142.121 60.644ZM152.182 67L150.04 64.158L147.87 67H146.372L149.298 63.206L146.512 59.58H148.01L150.054 62.254L152.084 59.58H153.554L150.754 63.206L153.708 67H152.182Z" fill="url(#paint1_linear_307_2)"/>
</g>
<path d="M176 -8.99998C321.812 -8.99999 372.755 200.333 380 305L380 -9L176 -8.99998Z" fill="url(#paint2_linear_307_2)"/>
<path d="M189 -6C330.523 -6 379.968 196.667 387 298V-6H189Z" fill="#F4F7FC"/>
</g>
<rect x="1.5" y="1.5" width="347" height="97" rx="8.5" stroke="url(#paint3_linear_307_2)" stroke-width="3"/>
<g filter="url(#filter2_d_307_2)">
<path d="M305.892 79.072L293.826 86.2736L281.761 79.072C270.988 72.6414 264.607 62.3215 264.607 51.3402V20.5149L293.826 13L323.045 20.5149V51.3402C323.05 62.3215 316.664 72.6414 305.892 79.072Z" fill="url(#paint4_linear_307_2)"/>
<mask id="mask1_307_2" style="mask-type:alpha" maskUnits="userSpaceOnUse" x="264" y="13" width="60" height="74">
<path d="M305.892 79.072L293.826 86.2736L281.761 79.072C270.988 72.6414 264.607 62.3215 264.607 51.3402V20.5149L293.826 13L323.045 20.5149V51.3402C323.05 62.3215 316.664 72.6414 305.892 79.072Z" fill="#0064B1"/>
</mask>
<g mask="url(#mask1_307_2)">
<g style="mix-blend-mode:multiply">
<path d="M317.525 74.1782C308.811 64.3607 296.189 49.6343 296.189 49.6343C296.189 49.6343 317.326 25.1899 317.525 25.0905H332.748V25.2894L312.114 49.3359V49.8383L332.748 73.9793V74.1782H317.525Z" fill="url(#paint5_linear_307_2)"/>
</g>
<g style="mix-blend-mode:multiply">
<path d="M297.263 25.0952C305.976 34.9128 318.599 49.6391 318.599 49.6391C318.599 49.6391 297.462 74.0835 297.263 74.183H282.034V73.984L302.669 49.9425V49.4402L282.034 25.2942V25.0952H297.263Z" fill="url(#paint6_linear_307_2)"/>
</g>
</g>
<path d="M270.993 40.7667C271.038 40.7816 271.063 40.7916 271.063 40.8364V42.1891C271.063 42.2339 271.038 42.2588 270.993 42.2588H269.422C269.377 42.2588 269.352 42.2339 269.352 42.1891V40.8364C269.352 40.7916 269.382 40.7667 269.422 40.7667H270.993ZM270.993 43.0147C271.038 43.0296 271.063 43.0446 271.063 43.0843V49.7338C271.063 49.7786 271.038 49.8034 270.993 49.8034H269.422C269.377 49.8034 269.352 49.7736 269.352 49.7338V43.0893C269.352 43.0446 269.382 43.0197 269.422 43.0197H270.993V43.0147Z" fill="white"/>
<path d="M277.499 42.5571C279.055 42.5571 280.05 43.1489 280.498 44.3426C280.627 44.6161 280.687 44.8896 280.687 45.1632V49.7338C280.687 49.7785 280.657 49.8034 280.617 49.8034H279.045C279.001 49.8034 278.976 49.7735 278.976 49.7338V45.193C278.976 44.6857 278.613 44.3823 277.911 44.268H275.012C274.35 44.268 273.928 44.4967 273.759 44.9742L273.729 45.2328V49.7338C273.729 49.7785 273.704 49.8034 273.659 49.8034H272.087C272.043 49.8034 272.018 49.7735 272.018 49.7338V45.2626C272.018 44.0939 272.654 43.2285 273.908 42.6964C274.211 42.5969 274.644 42.5521 275.191 42.5521H277.499V42.5571Z" fill="white"/>
<path d="M290.211 42.6865C290.255 42.7014 290.28 42.7164 290.28 42.7562V44.3278C290.28 44.3725 290.25 44.3974 290.211 44.3974H283.695V45.407H289.42C289.967 45.407 290.429 45.77 290.817 46.4912C290.887 46.7498 290.917 47.0234 290.917 47.3118V47.9882C290.917 49.2415 290.25 49.8781 288.927 49.8781H282.482C282.437 49.8781 282.412 49.8483 282.412 49.8085V48.2369C282.427 48.1921 282.442 48.1672 282.482 48.1672H289.216V47.1278H284.014C282.656 47.1278 281.979 46.4912 281.979 45.2379V44.5466C281.979 43.6663 282.343 43.0894 283.049 42.8009C283.208 42.7313 283.352 42.6865 283.452 42.6865H290.211Z" fill="white"/>
<path d="M293.866 42.5571C293.911 42.572 293.936 42.587 293.936 42.6268V42.9451H293.966C294.209 42.8008 294.702 42.7312 295.468 42.7312H297.686C299.043 42.7312 299.964 43.134 300.441 43.9547C300.769 44.3724 300.928 44.9643 300.928 45.7003V46.8393C300.928 48.2666 300.282 49.2215 298.969 49.694C298.695 49.7636 298.422 49.8084 298.148 49.8084H295.005C294.672 49.8084 294.314 49.7487 293.936 49.6343V51.5242C293.936 51.569 293.911 51.5939 293.866 51.5939H292.294C292.25 51.5939 292.225 51.569 292.225 51.5242V42.6268C292.225 42.582 292.255 42.5571 292.294 42.5571H293.866ZM293.941 46.8393C293.941 47.4311 294.13 47.819 294.503 47.9931C294.662 48.0627 294.806 48.0926 294.906 48.0926H298.253C298.899 47.9931 299.217 47.6052 299.217 46.9536V45.6257C299.217 44.835 298.77 44.4421 297.86 44.4421H295.293C294.383 44.4421 293.936 44.835 293.936 45.6257V46.8393H293.941Z" fill="white"/>
<path d="M304.678 49.6343C303.395 49.6343 302.5 48.9729 301.998 47.63C301.923 47.3416 301.883 47.0282 301.883 46.6652V45.5561C301.883 45.193 301.928 44.8797 302.013 44.5763C302.241 43.8104 302.619 43.2932 303.122 43.0346C303.281 42.9202 303.47 42.8157 303.674 42.7312C304.002 42.6168 304.494 42.5571 305.146 42.5571H307.349C308.17 42.6268 308.836 42.7859 309.309 43.0346C309.786 43.2783 310.114 43.6563 310.318 44.1287C310.507 45.4716 310.045 46.3767 308.921 46.884L308.891 46.9288V46.8989C308.821 46.9437 308.732 46.9686 308.647 46.9984C308.374 47.068 308.1 47.1128 307.827 47.1128H304.683C304.295 47.1128 303.932 47.0531 303.619 46.9238C303.664 47.4112 303.907 47.7295 304.355 47.8737L304.574 47.9185H310.114V49.6343H304.678ZM307.533 44.273H304.952C304.33 44.273 303.912 44.462 303.728 44.835C303.843 45.0787 304.047 45.2527 304.35 45.3522L304.569 45.397H307.926C308.344 45.3273 308.617 45.1533 308.762 44.8499C308.573 44.462 308.165 44.273 307.533 44.273Z" fill="white"/>
<path d="M312.586 42.6268C313.839 44.0393 314.476 44.7754 314.476 44.845H314.501C315.744 43.4176 316.406 42.6666 316.475 42.6268H318.609V42.6567C318.48 42.8457 317.485 44.0094 315.65 46.158L318.609 49.6642V49.6941H316.431L314.496 47.4859C313.243 48.9431 312.606 49.6792 312.576 49.6941H310.383V49.6642L313.352 46.2027V46.1281L310.383 42.6567V42.6268H312.586Z" fill="white"/>
</g>
<defs>
<filter id="filter0_d_307_2" x="25.1172" y="25.2793" width="160.426" height="14.8262" filterUnits="userSpaceOnUse" color-interpolation-filters="sRGB">
<feFlood flood-opacity="0" result="BackgroundImageFix"/>
<feColorMatrix in="SourceAlpha" type="matrix" values="0 0 0 0 0 0 0 0 0 0 0 0 0 0 0 0 0 0 127 0" result="hardAlpha"/>
<feOffset dy="1"/>
<feGaussianBlur stdDeviation="0.5"/>
<feColorMatrix type="matrix" values="0 0 0 0 0 0 0 0 0 0 0 0 0 0 0 0 0 0 0.25 0"/>
<feBlend mode="normal" in2="BackgroundImageFix" result="effect1_dropShadow_307_2"/>
<feBlend mode="normal" in="SourceGraphic" in2="effect1_dropShadow_307_2" result="shape"/>
</filter>
<filter id="filter1_d_307_2" x="24.9861" y="56.402" width="129.722" height="15.3981" filterUnits="userSpaceOnUse" color-interpolation-filters="sRGB">
<feFlood flood-opacity="0" result="BackgroundImageFix"/>
<feColorMatrix in="SourceAlpha" type="matrix" values="0 0 0 0 0 0 0 0 0 0 0 0 0 0 0 0 0 0 127 0" result="hardAlpha"/>
<feOffset dy="1"/>
<feGaussianBlur stdDeviation="0.5"/>
<feColorMatrix type="matrix" values="0 0 0 0 0 0 0 0 0 0 0 0 0 0 0 0 0 0 0.25 0"/>
<feBlend mode="normal" in2="BackgroundImageFix" result="effect1_dropShadow_307_2"/>
<feBlend mode="normal" in="SourceGraphic" in2="effect1_dropShadow_307_2" result="shape"/>
</filter>
<filter id="filter2_d_307_2" x="260.607" y="13" width="66.4377" height="81.2736" filterUnits="userSpaceOnUse" color-interpolation-filters="sRGB">
<feFlood flood-opacity="0" result="BackgroundImageFix"/>
<feColorMatrix in="SourceAlpha" type="matrix" values="0 0 0 0 0 0 0 0 0 0 0 0 0 0 0 0 0 0 127 0" result="hardAlpha"/>
<feOffset dy="4"/>
<feGaussianBlur stdDeviation="2"/>
<feColorMatrix type="matrix" values="0 0 0 0 0 0 0 0 0 0 0 0 0 0 0 0 0 0 0.25 0"/>
<feBlend mode="normal" in2="BackgroundImageFix" result="effect1_dropShadow_307_2"/>
<feBlend mode="normal" in="SourceGraphic" in2="effect1_dropShadow_307_2" result="shape"/>
</filter>
<linearGradient id="paint0_linear_307_2" x1="121" y1="23" x2="121" y2="50" gradientUnits="userSpaceOnUse">
<stop stop-color="#1D498C"/>
<stop offset="0.71875" stop-color="#0061AC"/>
<stop offset="1" stop-color="#144B76"/>
<stop offset="1" stop-color="#1E2B35"/>
</linearGradient>
<linearGradient id="paint1_linear_307_2" x1="90" y1="53" x2="90" y2="70" gradientUnits="userSpaceOnUse">
<stop stop-color="#1D498C"/>
<stop offset="0.71875" stop-color="#0061AC"/>
<stop offset="1" stop-color="#144B76"/>
<stop offset="1" stop-color="#1E2B35"/>
</linearGradient>
<linearGradient id="paint2_linear_307_2" x1="278" y1="-8.99999" x2="278" y2="305" gradientUnits="userSpaceOnUse">
<stop stop-color="#1E3B68"/>
<stop offset="0.421875" stop-color="#0064B1"/>
<stop offset="1" stop-color="#1E3B68"/>
</linearGradient>
<linearGradient id="paint3_linear_307_2" x1="175" y1="0" x2="175" y2="100" gradientUnits="userSpaceOnUse">
<stop stop-color="#1E3B68"/>
<stop offset="0.421875" stop-color="#0064B1"/>
<stop offset="1" stop-color="#1E3B68"/>
</linearGradient>
<linearGradient id="paint4_linear_307_2" x1="293.826" y1="13" x2="272" y2="133" gradientUnits="userSpaceOnUse">
<stop stop-color="#0064B1"/>
<stop offset="1" stop-color="#051F47"/>
</linearGradient>
<linearGradient id="paint5_linear_307_2" x1="314.469" y1="25.0905" x2="314.469" y2="74.1782" gradientUnits="userSpaceOnUse">
<stop stop-color="#1E3B68"/>
<stop offset="1" stop-color="#002E76"/>
</linearGradient>
<linearGradient id="paint6_linear_307_2" x1="300.317" y1="25.0952" x2="300.317" y2="74.183" gradientUnits="userSpaceOnUse">
<stop stop-color="#1E3B68"/>
<stop offset="1" stop-color="#002E76"/>
</linearGradient>
</defs>
</svg>
